<?xml version="1.0" standalone="no"?>
<!DOCTYPE svg PUBLIC "-//W3C//DTD SVG 20010904//EN"
 "http://www.w3.org/TR/2001/REC-SVG-20010904/DTD/svg10.dtd">
<svg version="1.0" xmlns="http://www.w3.org/2000/svg"
 width="143.000000pt" height="163.000000pt" viewBox="0 0 143.000000 163.000000"
 preserveAspectRatio="xMidYMid meet">

<g transform="translate(0.000000,163.000000) scale(0.100000,-0.100000)"
fill="#000000" stroke="none">
<path d="M462 1270 c-58 -26 -81 -78 -82 -181 0 -104 16 -148 101 -285 90
-146 102 -186 93 -322 -6 -97 -8 -103 -31 -108 -46 -12 -53 8 -53 142 l0 124
-56 0 -56 0 4 -98 c4 -117 22 -150 93 -178 75 -28 146 -6 185 59 16 26 20 51
20 135 0 122 -3 132 -108 302 l-77 125 -4 128 c-3 137 2 157 44 157 32 0 35
-15 35 -151 l0 -119 55 0 55 0 0 94 c0 80 -3 98 -23 127 -26 39 -79 69 -122
69 -16 0 -49 -9 -73 -20z"/>
<path d="M730 1270 c0 -5 6 -10 14 -10 17 0 17 2 61 -470 19 -206 38 -390 41
-407 5 -32 6 -33 54 -33 38 0 50 4 53 18 3 9 25 214 48 455 40 394 45 437 61
437 10 0 18 5 18 10 0 6 -22 10 -50 10 -27 0 -50 -4 -50 -10 0 -5 7 -10 15
-10 19 0 20 14 -15 -367 -28 -309 -46 -452 -49 -393 0 14 -14 178 -31 365 -35
396 -35 395 -15 395 8 0 15 5 15 10 0 6 -35 10 -85 10 -50 0 -85 -4 -85 -10z"/>
</g>
</svg>
